<svg xmlns="http://www.w3.org/2000/svg" xmlns:xlink="http://www.w3.org/1999/xlink" version="1.1" x="0px" y="0px" viewBox="0 0 100 125" style="enable-background:new 0 0 100 100;" xml:space="preserve"><g><path d="M50,21.0869198c-8.5407143,0-15.4890785,6.9484272-15.4890785,15.4890804   c0,8.5407753,6.9483643,15.4892616,15.4890785,15.4892616s15.4890823-6.9483032,15.4890823-15.4890785   C65.4890823,28.0354691,58.5407143,21.0869198,50,21.0869198z M50,45.8697052   c-5.1243896,0-9.2934608-4.1690712-9.2934608-9.2935219S44.8756104,27.2827225,50,27.2827225   s9.2934608,4.1690083,9.2934608,9.2934608S55.1243896,45.8697052,50,45.8697052z"/><path d="M50,2.5c-18.7896175,0-34.0762444,15.2866268-34.0762444,34.0761833   c0,13.1432533,3.9395151,18.2977333,31.5004387,59.5471382c1.2252197,1.8336182,3.9239502,1.8375244,5.1516113,0   c27.7067337-41.4491119,31.5004349-46.5335846,31.5004349-59.5471382C84.0760574,17.7866268,68.7895584,2.5,50,2.5z    M50.0001831,88.8276672C25.2537766,51.8160553,22.1197414,47.3206329,22.1197414,36.5761833   C22.1195583,21.2028866,34.6267052,8.6955585,50,8.6955585s27.8804398,12.5071449,27.8804398,27.8804417   C77.8804398,46.9478912,75.4959793,50.6829376,50.0001831,88.8276672z"/></g><text x="0" y="115" fill="#000000" font-size="5px" font-weight="bold" font-family="'Helvetica Neue', Helvetica, Arial-Unicode, Arial, Sans-serif">Created by pratama</text><text x="0" y="120" fill="#000000" font-size="5px" font-weight="bold" font-family="'Helvetica Neue', Helvetica, Arial-Unicode, Arial, Sans-serif">from the Noun Project</text></svg>