<svg xmlns="http://www.w3.org/2000/svg">
  <defs>
    <!-- Icons go here -->
    <symbol id="icon-location-pin" viewBox="0 0 100 125">
    <g>
      <path d="M49.98,10c-14.86,0-26.92,12.06-26.92,26.95C23.07,51.81,49.98,90,49.98,90s26.95-38.19,26.95-53.05  C76.93,22.06,64.88,10,49.98,10z M49.98,52.18c-8.41,0-15.23-6.82-15.23-15.23c0-8.44,6.82-15.26,15.23-15.26  c8.44,0,15.26,6.82,15.26,15.26C65.25,45.36,58.43,52.18,49.98,52.18z"/>
    </g>
    </symbol>

    <symbol id="icon-play-button" viewBox="0 0 100 125">
    <g>
      <path d="m93.957 50.148c0-24.246-19.656-43.902-43.902-43.902-24.25 0-43.902 19.656-43.902 43.902 0 24.246 19.656 43.902 43.902 43.902 24.246 0.003907 43.902-19.652 43.902-43.902zm-7.2461 0c0 20.246-16.414 36.66-36.66 36.66-20.242 0-36.656-16.414-36.656-36.66 0-20.246 16.414-36.66 36.66-36.66 20.246 0.003907 36.656 16.418 36.656 36.66z"/>
      <path d="m69.133 50.148-27.785-19.578v39.16z"/>
    </g>
    </symbol>
  </defs>
</svg>
