<svg xmlns="http://www.w3.org/2000/svg">
  <defs>
    <symbol id="icon-play-button" viewBox="-5.0 -10.0 110.0 135.0">
        <g fill-rule="evenodd">
            <path d="m93.957 50.148c0-24.246-19.656-43.902-43.902-43.902-24.25 0-43.902 19.656-43.902 43.902 0 24.246 19.656 43.902 43.902 43.902 24.246 0.003907 43.902-19.652 43.902-43.902zm-7.2461 0c0 20.246-16.414 36.66-36.66 36.66-20.242 0-36.656-16.414-36.656-36.66 0-20.246 16.414-36.66 36.66-36.66 20.246 0.003907 36.656 16.418 36.656 36.66z"/>
            <path d="m69.133 50.148-27.785-19.578v39.16z"/>
        </g>
        <text x="0.0" y="117.5" font-size="5.0" font-weight="bold" font-family="Arbeit Regular, Helvetica, Arial-Unicode, Arial, Sans-serif" fill="#000000">Created by Graphixs_Art</text><text x="0.0" y="122.5" font-size="5.0" font-weight="bold" font-family="Arbeit Regular, Helvetica, Arial-Unicode, Arial, Sans-serif" fill="#000000">from Noun Project</text>
    </symbol>
    <!-- Icons go here -->
  </defs>
</svg>